<?xml version="1.0" standalone="no"?>
<!DOCTYPE svg PUBLIC "-//W3C//DTD SVG 20010904//EN"
 "http://www.w3.org/TR/2001/REC-SVG-20010904/DTD/svg10.dtd">
<svg version="1.0" xmlns="http://www.w3.org/2000/svg"
 width="1280.000000pt" height="1280.000000pt" viewBox="0 0 1280.000000 1280.000000"
 preserveAspectRatio="xMidYMid meet">
<metadata>
Created by potrace 1.15, written by Peter Selinger 2001-2017
</metadata>
<g transform="translate(0.000000,1280.000000) scale(0.100000,-0.100000)"
fill="#FF0000" stroke="none">
<path d="M4250 8956 l0 -2813 -61 -7 c-34 -3 -526 -6 -1093 -6 l-1031 -1 66
-62 c36 -34 756 -714 1600 -1512 844 -797 1820 -1719 2169 -2049 349 -329 667
-630 705 -668 l70 -68 230 217 c1454 1373 3719 3512 4012 3790 l373 353 -1090
0 -1090 0 0 2820 0 2820 -2430 0 -2430 0 0 -2814z"/>
</g>
</svg>
